<?xml version="1.0" encoding="UTF-8"?>
<!DOCTYPE svg PUBLIC "-//W3C//DTD SVG 1.1//EN" "http://www.w3.org/Graphics/SVG/1.1/DTD/svg11.dtd">
<svg xmlns="http://www.w3.org/2000/svg" version="1.1" width="170px" height="102px" style="shape-rendering:geometricPrecision; text-rendering:geometricPrecision; image-rendering:optimizeQuality; fill-rule:evenodd; clip-rule:evenodd" xmlns:xlink="http://www.w3.org/1999/xlink">
<g><path style="opacity:1" fill="#fcfafb" d="M -0.5,-0.5 C 56.1667,-0.5 112.833,-0.5 169.5,-0.5C 169.5,33.5 169.5,67.5 169.5,101.5C 112.833,101.5 56.1667,101.5 -0.5,101.5C -0.5,67.5 -0.5,33.5 -0.5,-0.5 Z"/></g>
<g><path style="opacity:1" fill="#bc3131" d="M 77.5,9.5 C 89.6127,8.96399 101.613,9.79733 113.5,12C 121.571,13.4998 126.905,17.9998 129.5,25.5C 105.802,21.4204 82.1355,21.5871 58.5,26C 55.984,32.577 54.484,39.4103 54,46.5C 53.6667,55.1667 53.3333,63.8333 53,72.5C 46.0904,76.488 41.7571,74.488 40,66.5C 38.6411,53.4911 40.4745,40.9911 45.5,29C 43.1527,28.6664 40.8194,28.833 38.5,29.5C 39.6393,20.8627 44.6393,16.0293 53.5,15C 61.5598,12.8359 69.5598,11.0025 77.5,9.5 Z"/></g>
<g><path style="opacity:1" fill="#bb2f30" d="M 142.5,15.5 C 145.044,15.1043 147.211,15.771 149,17.5C 149.168,27.5166 149.668,37.5166 150.5,47.5C 153.87,45.8152 157.203,44.1485 160.5,42.5C 163.302,42.9709 164.636,44.6375 164.5,47.5C 164.195,50.2763 163.195,52.7763 161.5,55C 154.067,59.0506 146.4,62.5506 138.5,65.5C 136.971,65.4712 135.804,64.8045 135,63.5C 134.333,50.1667 134.333,36.8333 135,23.5C 136.69,19.9791 139.19,17.3124 142.5,15.5 Z"/></g>
<g><path style="opacity:1" fill="#bb3030" d="M 33.5,22.5 C 34.8333,22.5 36.1667,22.5 37.5,22.5C 35.5455,31.0443 34.2122,39.7109 33.5,48.5C 35.1545,56.1036 35.9879,63.7703 36,71.5C 28.1524,74.1614 23.319,71.4948 21.5,63.5C 20.5,63.5 19.5,63.5 18.5,63.5C 18.7989,65.604 18.4656,67.604 17.5,69.5C 7.74838,66.6659 4.24838,60.3325 7,50.5C 13.6459,39.0228 22.4792,29.6895 33.5,22.5 Z"/></g>
<g><path style="opacity:1" fill="#bc3030" d="M 121.5,61.5 C 121.5,64.1667 121.5,66.8333 121.5,69.5C 119.511,74.4006 116.011,75.7339 111,73.5C 110.506,71.8659 110.34,70.1992 110.5,68.5C 109.5,68.5 108.5,68.5 107.5,68.5C 107.247,73.7341 104.414,76.0674 99,75.5C 94.5446,76.1989 92.0446,74.3656 91.5,70C 94.1277,58.5282 96.6277,47.0282 99,35.5C 101.682,29.743 106.182,27.5763 112.5,29C 114.286,29.7845 115.786,30.9512 117,32.5C 119.236,42.0584 120.736,51.725 121.5,61.5 Z"/></g>
<g><path style="opacity:1" fill="#bc3030" d="M 73.5,63.5 C 73.2172,62.7109 72.7172,62.0442 72,61.5C 71.5014,65.1516 71.3347,68.8183 71.5,72.5C 68.335,75.803 64.6683,76.303 60.5,74C 59.8742,73.2496 59.3742,72.4162 59,71.5C 58.004,59.4006 58.6707,47.4006 61,35.5C 61.9299,33.4476 63.4299,31.9476 65.5,31C 72.5817,30.1158 79.5817,30.4492 86.5,32C 87.7014,32.9025 88.5348,34.0692 89,35.5C 90.7079,43.2898 89.2079,50.2898 84.5,56.5C 88.4618,61.4606 89.9618,67.1273 89,73.5C 85.3688,75.3499 81.5355,75.8499 77.5,75C 75.4771,71.4096 74.1438,67.5762 73.5,63.5 Z"/></g>
<g><path style="opacity:1" fill="#bd3635" d="M 125.5,72.5 C 123.824,71.8166 123.157,70.4832 123.5,68.5C 124.426,56.5199 124.592,44.5199 124,32.5C 126.618,29.8602 128.952,30.1936 131,33.5C 131.667,43.1667 131.667,52.8333 131,62.5C 130.746,66.8145 128.912,70.1479 125.5,72.5 Z"/></g>
<g><path style="opacity:1" fill="#f8e9e9" d="M 72.5,40.5 C 73.5,40.5 74.5,40.5 75.5,40.5C 75.6646,43.5184 75.498,46.5184 75,49.5C 74.586,49.9574 74.086,50.2907 73.5,50.5C 72.513,47.2317 72.1796,43.8984 72.5,40.5 Z"/></g>
<g><path style="opacity:1" fill="#d88f8f" d="M 110.5,50.5 C 109.833,49.5 109.167,48.5 108.5,47.5C 108.337,45.1432 108.503,42.8098 109,40.5C 110.405,43.6188 110.905,46.9521 110.5,50.5 Z"/></g>
<g><path style="opacity:1" fill="#eec6c5" d="M 23.5,36.5 C 24.0967,36.7352 24.4301,37.2352 24.5,38C 22.7343,43.1306 21.0676,48.2972 19.5,53.5C 18.3691,51.9255 18.2025,50.2588 19,48.5C 20.6052,44.5151 22.1052,40.5151 23.5,36.5 Z"/></g>
<g><path style="opacity:1" fill="#f9eeee" d="M 108.5,47.5 C 109.167,48.5 109.833,49.5 110.5,50.5C 110.817,53.5719 110.484,56.5719 109.5,59.5C 108.509,55.5546 108.176,51.5546 108.5,47.5 Z"/></g>
<g><path style="opacity:1" fill="#eec24e" d="M 155.5,65.5 C 156.801,64.1155 156.801,62.6155 155.5,61C 158.229,60.9953 160.229,59.8287 161.5,57.5C 161.739,60.696 163.406,62.5294 166.5,63C 163.271,63.3563 161.771,65.1897 162,68.5C 159.955,67.0735 157.788,66.0735 155.5,65.5 Z"/></g>
<g><path style="opacity:1" fill="#dda09f" d="M 73.5,63.5 C 72.8333,66.5 72.1667,69.5 71.5,72.5C 71.3347,68.8183 71.5014,65.1516 72,61.5C 72.7172,62.0442 73.2172,62.7109 73.5,63.5 Z"/></g>
<g><path style="opacity:1" fill="#e9c0c0" d="M 121.5,61.5 C 122.167,63.8333 122.833,66.1667 123.5,68.5C 123.157,70.4832 123.824,71.8166 125.5,72.5C 124.791,73.404 123.791,73.7373 122.5,73.5C 122.768,71.901 122.434,70.5676 121.5,69.5C 121.5,66.8333 121.5,64.1667 121.5,61.5 Z"/></g>
<g><path style="opacity:1" fill="#244b85" d="M 155.5,65.5 C 129.291,79.9583 101.291,89.125 71.5,93C 57.1667,93.6667 42.8333,93.6667 28.5,93C 22.4363,92.3873 16.4363,91.3873 10.5,90C 8.92625,88.1741 8.09291,86.0075 8,83.5C 7.50166,80.1832 7.33499,76.8499 7.5,73.5C 31.9519,80.9216 56.9519,84.0882 82.5,83C 108.037,81.4084 132.203,74.9084 155,63.5C 155.464,64.0944 155.631,64.7611 155.5,65.5 Z"/></g>
</svg>
